#Comment line ignore any data following # character 
#Hierarchical Translation and Rotation (.htr) file 
[Header]	
#Header keywords are followed by a single value 
FileType HTR		#Single word string
DataType HTRS		#Translation followed by rotation and scale data
FileVersion 1		#integer
NumSegments 84		#integer
NumFrames 2		#integer
DataFrameRate 30		#integer, data frame rate in this file
EulerRotationOrder ZYX
CalibrationUnits mm
RotationUnits Degrees
GlobalAxisofGravity Y
BoneLengthAxis Y
ScaleFactor 1.00
[SegmentNames&Hierarchy]
#CHILD	PARENT
MASTER GLOBAL
root MASTER
chest root
L_mid_tent01 root
R_mid_tent01 root
spine01 root
Bip01_Neck chest
L_humerus chest
R_humerus chest
weapon_bone chest
Bip01_Head Bip01_Neck
eye_left_bone Bip01_Head
eye_right_bone Bip01_Head
L_forearm L_humerus
L_front_hand L_forearm
L_weapon_bone L_forearm
L_front_hand01_01 L_front_hand
L_front_hand02_01 L_front_hand
L_front_hand03_01 L_front_hand
L_front_hand01_02 L_front_hand01_01
L_front_hand02_02 L_front_hand02_01
L_front_hand03_02 L_front_hand03_01
R_forearm R_humerus
R_front_hand R_forearm
R_weapon_bone R_forearm
R_front_hand01_01 R_front_hand
R_front_hand02_01 R_front_hand
R_front_hand03_01 R_front_hand
R_front_hand01_02 R_front_hand01_01
R_front_hand02_02 R_front_hand02_01
R_front_hand03_02 R_front_hand03_01
null_rope01_connect L_mid_tent01
Rope1_Seg01 null_rope01_connect
Rope1_Seg02 Rope1_Seg01
Rope1_Seg03 Rope1_Seg02
Rope1_Seg04 Rope1_Seg03
Rope1_Seg05 Rope1_Seg04
Rope1_Seg06 Rope1_Seg05
Rope1_Seg07 Rope1_Seg06
Rope1_Seg09 Rope1_Seg07
L_mid_hand01 Rope1_Seg09
L_mid_hand02 Rope1_Seg09
L_mid_hand03 Rope1_Seg09
null_rope02_connect R_mid_tent01
Rope2_Seg01 null_rope02_connect
Rope2_Seg02 Rope2_Seg01
Rope2_Seg03 Rope2_Seg02
Rope2_Seg04 Rope2_Seg03
Rope2_Seg05 Rope2_Seg04
Rope2_Seg06 Rope2_Seg05
Rope2_Seg07 Rope2_Seg06
Rope2_Seg09 Rope2_Seg07
R_mid_hand01 Rope2_Seg09
R_mid_hand02 Rope2_Seg09
R_mid_hand03 Rope2_Seg09
spine02 spine01
spine03 spine02
pelvis spine03
null_rope03_connect pelvis
null_rope04_connect pelvis
Rope3_Seg01 null_rope03_connect
Rope3_Seg02 Rope3_Seg01
Rope3_Seg03 Rope3_Seg02
Rope3_Seg04 Rope3_Seg03
Rope3_Seg05 Rope3_Seg04
Rope3_Seg06 Rope3_Seg05
Rope3_Seg07 Rope3_Seg06
Rope3_Seg08 Rope3_Seg07
Rope3_Seg09 Rope3_Seg08
R_rear_hand01 Rope3_Seg09
R_rear_hand02 Rope3_Seg09
R_rear_hand03 Rope3_Seg09
Rope4_Seg01 null_rope04_connect
Rope4_Seg02 Rope4_Seg01
Rope4_Seg03 Rope4_Seg02
Rope4_Seg04 Rope4_Seg03
Rope4_Seg05 Rope4_Seg04
Rope4_Seg06 Rope4_Seg05
Rope4_Seg07 Rope4_Seg06
Rope4_Seg08 Rope4_Seg07
Rope4_Seg09 Rope4_Seg08
L_rear_hand01 Rope4_Seg09
L_rear_hand02 Rope4_Seg09
L_rear_hand03 Rope4_Seg09
[BasePosition]
#SegmentName Tx, Ty, Tz, Rx, Ry, Rz, BoneLength
MASTER 0.000000 0.000000 0.000000 -90.000000 0.000000 0.000000 10.000000 
root 0.000000 0.000000 0.000000 0.000000 0.000000 0.000000 10.000000 
chest 0.000000 0.000000 0.000000 0.000000 0.000000 0.000000 10.000000 
L_mid_tent01 0.000000 0.000000 0.000000 0.000000 0.000000 0.000000 10.000000 
R_mid_tent01 0.000000 0.000000 0.000000 0.000000 0.000000 0.000000 10.000000 
spine01 0.000000 0.000000 0.000000 0.000000 0.000000 0.000000 10.000000 
Bip01_Neck 0.000000 0.000000 0.000000 0.000000 0.000000 0.000000 10.000000 
L_humerus 0.000000 0.000000 0.000000 0.000000 0.000000 0.000000 10.000000 
R_humerus 0.000000 0.000000 0.000000 0.000000 0.000000 0.000000 10.000000 
weapon_bone 0.000000 0.000000 0.000000 0.000000 0.000000 0.000000 10.000000 
Bip01_Head 0.000000 0.000000 0.000000 0.000000 0.000000 0.000000 10.000000 
eye_left_bone 0.000000 0.000000 0.000000 0.000000 0.000000 0.000000 10.000000 
eye_right_bone 0.000000 0.000000 0.000000 0.000000 0.000000 0.000000 10.000000 
L_forearm 0.000000 0.000000 0.000000 0.000000 0.000000 0.000000 10.000000 
L_front_hand 0.000000 0.000000 0.000000 0.000000 0.000000 0.000000 10.000000 
L_weapon_bone 0.000000 0.000000 0.000000 0.000000 0.000000 0.000000 10.000000 
L_front_hand01_01 0.000000 0.000000 0.000000 0.000000 0.000000 0.000000 10.000000 
L_front_hand02_01 0.000000 0.000000 0.000000 0.000000 0.000000 0.000000 10.000000 
L_front_hand03_01 0.000000 0.000000 0.000000 0.000000 0.000000 0.000000 10.000000 
L_front_hand01_02 0.000000 0.000000 0.000000 0.000000 0.000000 0.000000 10.000000 
L_front_hand02_02 0.000000 0.000000 0.000000 0.000000 0.000000 0.000000 10.000000 
L_front_hand03_02 0.000000 0.000000 0.000000 0.000000 0.000000 0.000000 10.000000 
R_forearm 0.000000 0.000000 0.000000 0.000000 0.000000 0.000000 10.000000 
R_front_hand 0.000000 0.000000 0.000000 0.000000 0.000000 0.000000 10.000000 
R_weapon_bone 0.000000 0.000000 0.000000 0.000000 0.000000 0.000000 10.000000 
R_front_hand01_01 0.000000 0.000000 0.000000 0.000000 0.000000 0.000000 10.000000 
R_front_hand02_01 0.000000 0.000000 0.000000 0.000000 0.000000 0.000000 10.000000 
R_front_hand03_01 0.000000 0.000000 0.000000 0.000000 0.000000 0.000000 10.000000 
R_front_hand01_02 0.000000 0.000000 0.000000 0.000000 0.000000 0.000000 10.000000 
R_front_hand02_02 0.000000 0.000000 0.000000 0.000000 0.000000 0.000000 10.000000 
R_front_hand03_02 0.000000 0.000000 0.000000 0.000000 0.000000 0.000000 10.000000 
null_rope01_connect 0.000000 0.000000 0.000000 0.000000 0.000000 0.000000 10.000000 
Rope1_Seg01 0.000000 0.000000 0.000000 0.000000 0.000000 0.000000 10.000000 
Rope1_Seg02 0.000000 0.000000 0.000000 0.000000 0.000000 0.000000 10.000000 
Rope1_Seg03 0.000000 0.000000 0.000000 0.000000 0.000000 0.000000 10.000000 
Rope1_Seg04 0.000000 0.000000 0.000000 0.000000 0.000000 0.000000 10.000000 
Rope1_Seg05 0.000000 0.000000 0.000000 0.000000 0.000000 0.000000 10.000000 
Rope1_Seg06 0.000000 0.000000 0.000000 0.000000 0.000000 0.000000 10.000000 
Rope1_Seg07 0.000000 0.000000 0.000000 0.000000 0.000000 0.000000 10.000000 
Rope1_Seg09 0.000000 0.000000 0.000000 0.000000 0.000000 0.000000 10.000000 
L_mid_hand01 0.000000 0.000000 0.000000 0.000000 0.000000 0.000000 10.000000 
L_mid_hand02 0.000000 0.000000 0.000000 0.000000 0.000000 0.000000 10.000000 
L_mid_hand03 0.000000 0.000000 0.000000 0.000000 0.000000 0.000000 10.000000 
null_rope02_connect 0.000000 0.000000 0.000000 0.000000 0.000000 0.000000 10.000000 
Rope2_Seg01 0.000000 0.000000 0.000000 0.000000 0.000000 0.000000 10.000000 
Rope2_Seg02 0.000000 0.000000 0.000000 0.000000 0.000000 0.000000 10.000000 
Rope2_Seg03 0.000000 0.000000 0.000000 0.000000 0.000000 0.000000 10.000000 
Rope2_Seg04 0.000000 0.000000 0.000000 0.000000 0.000000 0.000000 10.000000 
Rope2_Seg05 0.000000 0.000000 0.000000 0.000000 0.000000 0.000000 10.000000 
Rope2_Seg06 0.000000 0.000000 0.000000 0.000000 0.000000 0.000000 10.000000 
Rope2_Seg07 0.000000 0.000000 0.000000 0.000000 0.000000 0.000000 10.000000 
Rope2_Seg09 0.000000 0.000000 0.000000 0.000000 0.000000 0.000000 10.000000 
R_mid_hand01 0.000000 0.000000 0.000000 0.000000 0.000000 0.000000 10.000000 
R_mid_hand02 0.000000 0.000000 0.000000 0.000000 0.000000 0.000000 10.000000 
R_mid_hand03 0.000000 0.000000 0.000000 0.000000 0.000000 0.000000 10.000000 
spine02 0.000000 0.000000 0.000000 0.000000 0.000000 0.000000 10.000000 
spine03 0.000000 0.000000 0.000000 0.000000 0.000000 0.000000 10.000000 
pelvis 0.000000 0.000000 0.000000 0.000000 0.000000 0.000000 10.000000 
null_rope03_connect 0.000000 0.000000 0.000000 0.000000 0.000000 0.000000 10.000000 
null_rope04_connect 0.000000 0.000000 0.000000 0.000000 0.000000 0.000000 10.000000 
Rope3_Seg01 0.000000 0.000000 0.000000 0.000000 0.000000 0.000000 10.000000 
Rope3_Seg02 0.000000 0.000000 0.000000 0.000000 0.000000 0.000000 10.000000 
Rope3_Seg03 0.000000 0.000000 0.000000 0.000000 0.000000 0.000000 10.000000 
Rope3_Seg04 0.000000 0.000000 0.000000 0.000000 0.000000 0.000000 10.000000 
Rope3_Seg05 0.000000 0.000000 0.000000 0.000000 0.000000 0.000000 10.000000 
Rope3_Seg06 0.000000 0.000000 0.000000 0.000000 0.000000 0.000000 10.000000 
Rope3_Seg07 0.000000 0.000000 0.000000 0.000000 0.000000 0.000000 10.000000 
Rope3_Seg08 0.000000 0.000000 0.000000 0.000000 0.000000 0.000000 10.000000 
Rope3_Seg09 0.000000 0.000000 0.000000 0.000000 0.000000 0.000000 10.000000 
R_rear_hand01 0.000000 0.000000 0.000000 0.000000 0.000000 0.000000 10.000000 
R_rear_hand02 0.000000 0.000000 0.000000 0.000000 0.000000 0.000000 10.000000 
R_rear_hand03 0.000000 0.000000 0.000000 0.000000 0.000000 0.000000 10.000000 
Rope4_Seg01 0.000000 0.000000 0.000000 0.000000 0.000000 0.000000 10.000000 
Rope4_Seg02 0.000000 0.000000 0.000000 0.000000 0.000000 0.000000 10.000000 
Rope4_Seg03 0.000000 0.000000 0.000000 0.000000 0.000000 0.000000 10.000000 
Rope4_Seg04 0.000000 0.000000 0.000000 0.000000 0.000000 0.000000 10.000000 
Rope4_Seg05 0.000000 0.000000 0.000000 0.000000 0.000000 0.000000 10.000000 
Rope4_Seg06 0.000000 0.000000 0.000000 0.000000 0.000000 0.000000 10.000000 
Rope4_Seg07 0.000000 0.000000 0.000000 0.000000 0.000000 0.000000 10.000000 
Rope4_Seg08 0.000000 0.000000 0.000000 0.000000 0.000000 0.000000 10.000000 
Rope4_Seg09 0.000000 0.000000 0.000000 0.000000 0.000000 0.000000 10.000000 
L_rear_hand01 0.000000 0.000000 0.000000 0.000000 0.000000 0.000000 10.000000 
L_rear_hand02 0.000000 0.000000 0.000000 0.000000 0.000000 0.000000 10.000000 
L_rear_hand03 0.000000 0.000000 0.000000 0.000000 0.000000 0.000000 10.000000 
#Beginning of Data. Separated by tabs
#Fr	Tx	Ty	Tz	Rx	Ry	Rz	SF
[MASTER]
34 -115.822845 2401.605469 846.178467 0.001660 0.001660 0.001660 2548.949219
35 -107.549850 2691.686035 785.737183 0.001660 0.001660 0.001660 2806.086670
[root]
34 2.696667 444.668884 1104.892578 -91.560257 -33.792103 -89.982002 1191.018677
35 5.252609 403.015747 1092.790649 -91.572647 -32.387520 -89.951950 1164.749146
[chest]
34 -84.512650 -34.090519 0.000000 -5.085019 -22.524490 141.396103 91.129311
35 -84.512650 -34.090519 0.000000 1.691224 -18.423542 131.331711 91.129311
[L_mid_tent01]
34 27.299154 22.179237 -249.918716 -8.266340 32.682663 52.725574 252.381714
35 27.299156 22.179239 -249.918716 -9.755733 31.526199 49.472675 252.381714
[R_mid_tent01]
34 23.228794 24.509907 226.238495 178.327911 -29.496267 51.715504 228.744751
35 23.228794 24.509907 226.238495 179.750427 -28.932133 49.535599 228.744751
[spine01]
34 -0.361383 -0.195265 0.000000 -0.000001 -0.000007 22.052340 0.410763
35 -0.361383 -0.195265 0.000000 -0.000001 -0.000007 22.052340 0.410763
[Bip01_Neck]
34 165.484543 71.581718 0.000119 176.643677 -1.657967 43.431911 180.302734
35 165.484543 71.581718 0.000119 176.643677 -1.657967 43.431911 180.302734
[L_humerus]
34 -13.983130 -135.272980 -120.471481 114.727753 83.546448 -154.453262 181.680161
35 -13.983130 -135.272980 -120.471481 89.998863 84.673584 -179.313385 181.680161
[R_humerus]
34 -13.983309 -135.273102 125.287651 -175.446259 -82.809692 -89.578773 184.909012
35 -13.983309 -135.273102 125.287651 178.737762 -85.615456 -83.746826 184.909012
[weapon_bone]
34 235.964890 -300.705902 0.000000 0.000000 -89.951546 -128.212341 382.234833
35 235.964890 -300.705902 0.000000 0.000000 -89.951546 -128.212341 382.234833
[Bip01_Head]
34 217.316437 193.779602 33.483009 32.574516 13.922997 -44.059910 293.083740
35 203.286270 162.408752 31.616497 23.806807 3.341907 -49.228695 262.109741
[eye_left_bone]
34 -24.626970 125.451866 -64.772606 0.000000 -90.000000 -99.840431 143.318359
35 -24.626970 125.451866 -64.772606 0.000000 -90.000000 -99.840431 143.318359
[eye_right_bone]
34 -24.626970 125.451866 64.327362 0.000000 -89.965736 80.156380 143.117676
35 -24.626970 125.451866 64.327362 0.000000 -89.965736 80.156380 143.117676
[L_forearm]
34 322.776093 0.000000 -0.000119 0.000243 -0.002335 -101.877045 322.776093
35 322.776093 0.000000 -0.000119 0.000222 -0.002337 -100.834969 322.776093
[L_front_hand]
34 241.149185 -0.042021 -3.300071 0.836591 -1.835726 -27.423458 241.171753
35 241.149185 -0.042021 -3.300071 0.836590 -1.835725 -27.423458 241.171753
[L_weapon_bone]
34 156.183838 0.000000 0.000000 0.000014 0.000007 0.000001 156.183838
35 156.183838 0.000000 0.000000 0.000014 0.000007 0.000001 156.183838
[L_front_hand01_01]
34 86.095154 20.947098 -0.655860 -0.366594 -0.477154 75.385574 88.609184
35 86.095154 20.947098 -0.655860 -0.366594 -0.477154 75.385574 88.609184
[L_front_hand02_01]
34 86.935165 -11.437475 24.513514 154.399796 -59.883835 -61.369587 91.046425
35 86.935165 -11.437475 24.513514 154.399796 -59.883835 -61.369587 91.046425
[L_front_hand03_01]
34 86.637497 -14.123976 -20.424902 -153.913849 58.118130 -62.702866 90.126129
35 86.637497 -14.123976 -20.424902 -153.913849 58.118122 -62.702866 90.126129
[L_front_hand01_02]
34 71.020905 -0.000179 0.000030 0.000334 -0.002323 -106.379684 71.020905
35 71.020905 -0.000179 0.000030 0.000334 -0.002323 -106.379707 71.020905
[L_front_hand02_02]
34 71.020927 -0.000119 0.000060 0.000334 -0.002323 -106.379684 71.020927
35 71.020927 -0.000119 0.000060 0.000334 -0.002323 -106.379707 71.020927
[L_front_hand03_02]
34 71.020905 -0.000060 0.000060 0.000334 -0.002323 -106.379684 71.020905
35 71.020905 -0.000060 0.000060 0.000334 -0.002323 -106.379707 71.020905
[R_forearm]
34 322.776428 -0.000060 0.000030 0.210976 0.035020 -100.732033 322.776428
35 322.776428 -0.000060 0.000030 0.211300 0.033012 -99.642433 322.776428
[R_front_hand]
34 238.847015 -0.006795 2.210259 42.936222 -10.646152 -26.312963 238.857239
35 238.847015 -0.006795 2.210259 42.936222 -10.646152 -26.312963 238.857239
[R_weapon_bone]
34 155.664093 0.002503 -0.000030 0.003487 0.001180 -90.988930 155.664078
35 155.664093 0.002503 -0.000030 0.003487 0.001180 -90.988930 155.664078
[R_front_hand01_01]
34 87.624611 14.231146 22.918642 -154.633499 -59.950619 61.746044 91.683487
35 87.624611 14.231146 22.918642 -154.633499 -59.950619 61.746044 91.683487
[R_front_hand02_01]
34 89.356956 14.367283 -19.491137 154.602661 58.302849 63.744389 92.579636
35 89.356956 14.367283 -19.491137 154.602661 58.302849 63.744389 92.579636
[R_front_hand03_01]
34 87.286232 -22.307278 -0.143439 0.162155 -0.423168 -75.767906 90.091743
35 87.286232 -22.307278 -0.143439 0.162155 -0.423168 -75.767921 90.091743
[R_front_hand01_02]
34 71.020905 0.000060 0.000119 0.002323 -0.000334 106.381714 71.020905
35 71.020905 0.000060 0.000119 0.002323 -0.000334 106.381714 71.020905
[R_front_hand02_02]
34 71.020844 -0.000030 -0.000119 0.002323 -0.000334 106.381714 71.020836
35 71.020844 -0.000030 -0.000119 0.002323 -0.000334 106.381714 71.020836
[R_front_hand03_02]
34 71.020905 0.000000 0.000030 0.002323 -0.000334 106.381714 71.020905
35 71.020905 0.000000 0.000030 0.002323 -0.000334 106.381714 71.020905
[null_rope01_connect]
34 328.732483 0.000000 -0.000238 -124.858521 -54.961712 -166.325714 328.732483
35 328.732483 0.000000 -0.000238 -126.213486 -55.724400 -163.454391 328.732483
[Rope1_Seg01]
34 -0.000027 0.000011 0.000107 121.387787 29.726482 161.305115 0.000111
35 -0.000028 0.000011 0.000110 123.440315 33.015278 163.077667 0.000114
[Rope1_Seg02]
34 139.999863 -0.000179 0.000000 0.059952 11.479228 -17.195484 139.999863
35 139.999863 -0.000179 0.000000 -0.624503 11.956567 -15.897734 139.999863
[Rope1_Seg03]
34 139.999924 0.000060 -0.000060 -3.575551 7.287489 -3.533618 139.999924
35 139.999924 0.000060 -0.000060 -3.810308 6.312715 -2.007606 139.999924
[Rope1_Seg04]
34 139.999924 -0.000060 -0.000119 37.053478 10.978064 -29.756273 139.999924
35 139.999924 -0.000060 -0.000119 43.434311 15.992278 -32.163219 139.999924
[Rope1_Seg05]
34 139.999832 0.000119 -0.000060 102.376297 -16.232292 -45.376465 139.999832
35 139.999832 0.000119 -0.000060 108.120193 -15.701919 -42.603466 139.999832
[Rope1_Seg06]
34 139.999954 0.000119 -0.000060 3.225058 -11.099824 5.586339 139.999954
35 139.999954 0.000119 -0.000060 1.941334 -8.797890 5.838005 139.999954
[Rope1_Seg07]
34 139.999985 0.000060 0.000000 0.983670 -4.807777 2.792185 139.999985
35 139.999985 0.000060 0.000000 0.659427 -3.983363 2.864161 139.999985
[Rope1_Seg09]
34 121.602913 0.000119 -0.000089 -89.793175 -1.359789 0.847147 121.602913
35 121.602913 0.000119 -0.000089 -89.793175 -1.359789 0.847147 121.602913
[L_mid_hand01]
34 103.859421 1.038730 8.195221 130.544373 -67.584534 -38.866943 104.187431
35 103.859421 1.038730 8.195221 130.544373 -67.584534 -38.866943 104.187431
[L_mid_hand02]
34 105.572853 -4.139662 -10.864139 -168.923172 43.409309 -73.498894 106.211075
35 105.572853 -4.139662 -10.864139 -168.923172 43.409309 -73.498886 106.211075
[L_mid_hand03]
34 104.641464 17.579376 -3.913581 -6.012626 17.808172 74.893661 106.179977
35 104.641464 17.579376 -3.913581 -6.012628 17.808178 74.893669 106.179977
[null_rope02_connect]
34 328.732849 0.000179 -0.000119 -102.612816 61.595562 5.137967 328.732849
35 328.732849 0.000179 -0.000119 -104.662224 62.195473 2.689098 328.732849
[Rope2_Seg01]
34 0.000065 0.000045 0.000000 -61.975060 25.035261 10.147793 0.000079
35 0.000066 0.000042 0.000000 -77.651581 32.267334 -4.253647 0.000078
[Rope2_Seg02]
34 139.999741 -0.000060 -0.000119 -3.741684 7.592579 0.591412 139.999756
35 139.999741 -0.000060 -0.000119 -8.110203 9.296271 1.017608 139.999756
[Rope2_Seg03]
34 140.000107 0.000030 0.000000 -8.759397 11.377859 1.659764 140.000107
35 140.000107 0.000030 0.000000 -18.973389 11.612425 3.009997 140.000107
[Rope2_Seg04]
34 139.999802 0.000000 -0.000060 -30.406555 17.967875 6.598820 139.999802
35 139.999802 0.000000 -0.000060 -38.297760 11.437805 7.685950 139.999802
[Rope2_Seg05]
34 139.999985 -0.000060 0.000119 -43.325657 12.738117 14.757193 139.999985
35 139.999985 -0.000060 0.000119 -30.061213 3.358326 11.449359 139.999985
[Rope2_Seg06]
34 139.999893 -0.000030 -0.000119 -22.725298 3.203090 12.126559 139.999893
35 139.999893 -0.000030 -0.000119 -16.899393 -3.046366 11.932389 139.999893
[Rope2_Seg07]
34 139.999893 0.000060 -0.000060 -15.197012 -1.938092 12.845876 139.999893
35 139.999893 0.000060 -0.000060 -8.460646 -5.740023 9.737021 139.999893
[Rope2_Seg09]
34 121.338966 0.000089 -0.000060 33.793236 -1.359788 -0.847141 121.338966
35 121.338966 0.000089 -0.000060 33.793236 -1.359788 -0.847141 121.338966
[R_mid_hand01]
34 104.680779 11.144459 -10.335981 -16.212063 45.237240 70.462852 105.778534
35 104.680779 11.144459 -10.335981 -16.212063 45.237240 70.462845 105.778534
[R_mid_hand02]
34 104.070427 2.443552 8.231699 49.067368 -67.749771 39.286453 104.424065
35 104.070427 2.443552 8.231699 49.067368 -67.749771 39.286453 104.424065
[R_mid_hand03]
34 106.028137 -11.221827 -5.996406 -177.101105 15.551026 -76.585571 106.788818
35 106.028137 -11.221827 -5.996406 -177.101105 15.551026 -76.585571 106.788818
[spine02]
34 129.756927 0.001550 0.000119 0.436222 -4.036603 -14.029026 129.756927
35 129.756927 0.001550 0.000119 0.427784 -4.037566 -13.905744 129.756927
[spine03]
34 78.613945 0.081742 -4.898993 1.943307 3.811211 17.164633 78.766487
35 78.613937 0.081745 -4.898992 1.937971 3.812878 17.092430 78.766479
[pelvis]
34 169.435242 0.051022 0.000000 -0.065127 -0.179136 15.496953 169.435257
35 169.435242 0.051022 0.000000 -0.064067 -0.179334 15.341387 169.435257
[null_rope03_connect]
34 -1.257226 -2.466202 137.391083 0.000000 -89.613869 83.121605 137.418976
35 -1.257226 -2.466202 137.391083 0.000000 -89.621025 81.828705 137.418976
[null_rope04_connect]
34 -1.259640 -2.480268 -137.844437 0.000000 -89.613869 83.121605 137.872513
35 -1.259640 -2.480268 -137.844437 0.000000 -89.621025 81.828705 137.872513
[Rope3_Seg01]
34 0.000000 0.000000 0.000000 80.228691 -78.415215 52.357811 0.000000
35 0.000000 0.000000 0.000000 103.116821 -81.802147 31.352955 0.000000
[Rope3_Seg02]
34 139.999924 -0.000119 0.000060 9.278918 -18.458363 -0.232461 139.999924
35 139.999924 -0.000119 0.000060 8.772721 -18.339558 0.838800 139.999924
[Rope3_Seg03]
34 139.999924 -0.000119 0.000119 19.649860 -25.698755 0.489534 139.999924
35 139.999924 -0.000119 0.000119 18.153807 -25.419069 0.195817 139.999924
[Rope3_Seg04]
34 139.999924 0.000119 0.000000 18.999495 -19.244715 10.280929 139.999924
35 139.999924 0.000119 0.000000 17.988928 -19.548738 12.724387 139.999924
[Rope3_Seg05]
34 139.999924 -0.000238 0.000060 10.766386 -11.320967 42.213226 139.999924
35 139.999924 -0.000238 0.000060 8.336174 -2.671951 37.846725 139.999924
[Rope3_Seg06]
34 139.999893 -0.000119 -0.000060 -0.139125 -0.575250 26.555740 139.999893
35 139.999893 -0.000119 -0.000060 0.396822 1.289377 18.901396 139.999893
[Rope3_Seg07]
34 139.999771 0.000060 -0.000119 -1.270790 -0.622563 9.476210 139.999771
35 139.999771 0.000060 -0.000119 -0.505472 0.121273 7.994977 139.999771
[Rope3_Seg08]
34 139.999985 -0.000060 0.000000 -0.612133 -0.385464 4.431295 139.999985
35 139.999985 -0.000060 0.000000 -0.205349 0.023762 4.048033 139.999985
[Rope3_Seg09]
34 90.185997 -0.000179 -0.000060 89.793228 -1.359877 -0.847183 90.185997
35 90.185997 -0.000179 -0.000060 89.793228 -1.359877 -0.847183 90.185997
[R_rear_hand01]
34 103.366196 -6.073594 -10.757982 -177.714203 24.565960 -73.910950 104.101845
35 103.366196 -6.073594 -10.757982 -177.714203 24.565960 -73.910950 104.101845
[R_rear_hand02]
34 100.509819 12.039542 -7.992327 -12.874829 36.868488 72.167213 101.543350
35 100.509819 12.039542 -7.992327 -12.874829 36.868488 72.167213 101.543350
[R_rear_hand03]
34 101.539970 5.215704 5.435467 71.484634 -71.816666 21.513842 101.819031
35 101.539970 5.215704 5.435467 71.484619 -71.816643 21.513803 101.819031
[Rope4_Seg01]
34 0.000010 0.000038 -0.000114 162.186737 -34.513691 165.410019 0.000121
35 0.000010 0.000038 -0.000114 135.738297 -34.088520 174.132675 0.000121
[Rope4_Seg02]
34 139.999985 0.000060 0.000119 -89.238213 -12.152688 -18.333849 139.999985
35 139.999985 0.000060 0.000119 -70.349464 -5.276350 -20.807030 139.999985
[Rope4_Seg03]
34 139.999924 0.000000 -0.000238 -53.108768 4.591852 -12.570029 139.999924
35 139.999924 0.000000 -0.000238 -48.133701 3.175236 -15.572437 139.999924
[Rope4_Seg04]
34 139.999985 0.000000 0.000119 12.245192 14.586884 14.650004 139.999985
35 139.999985 0.000000 0.000119 17.494556 14.193883 20.264872 139.999985
[Rope4_Seg05]
34 139.999802 -0.000060 -0.000119 15.978333 25.036274 30.715326 139.999802
35 139.999802 -0.000060 -0.000119 14.127443 20.683891 29.483059 139.999802
[Rope4_Seg06]
34 139.999924 0.000000 0.000060 1.536643 11.934449 8.988279 139.999924
35 139.999924 0.000000 0.000060 1.081122 8.331274 7.171356 139.999924
[Rope4_Seg07]
34 139.999802 0.000000 0.000000 0.300010 5.659845 3.929129 139.999802
35 139.999802 0.000000 0.000000 0.284325 4.283966 3.452478 139.999802
[Rope4_Seg08]
34 139.999924 0.000000 0.000119 -1.473837 2.981734 2.056323 139.999924
35 139.999924 0.000000 0.000119 -1.454329 2.335705 1.871786 139.999924
[Rope4_Seg09]
34 90.185791 0.000060 0.000060 -135.617828 2.228885 0.850567 90.185791
35 90.185791 0.000060 0.000060 -135.617828 2.228885 0.850567 90.185791
[L_rear_hand01]
34 101.696655 -8.392275 -7.654577 -12.874829 -36.868488 107.832764 102.329041
35 101.696655 -8.392275 -7.654577 -12.874829 -36.868488 107.832764 102.329041
[L_rear_hand02]
34 102.726799 -1.568258 5.773216 71.484581 71.816612 158.486160 102.900848
35 102.726799 -1.568258 5.773216 71.484627 71.816643 158.486160 102.900848
[L_rear_hand03]
34 104.552910 9.721220 -10.420293 -177.714203 -24.565960 -106.089035 105.519653
35 104.552910 9.721220 -10.420293 -177.714203 -24.565960 -106.089035 105.519653
